<mxfile host="app.diagrams.net" modified="2020-10-28T22:28:10.630Z" agent="5.0 (Windows NT 10.0; Win64; x64) AppleWebKit/537.36 (KHTML, like Gecko) Chrome/81.0.4200.0 Iron Safari/537.36" etag="9x4LDop7oHBipClyrQXm" version="13.8.5" type="github">
  <diagram id="Tx0p5E9WBVq4NnIaWDHo" name="Page-1">
    <mxGraphModel dx="1386" dy="757" grid="1" gridSize="10" guides="1" tooltips="1" connect="1" arrows="1" fold="1" page="1" pageScale="1" pageWidth="850" pageHeight="1100" math="0" shadow="0">
      <root>
        <mxCell id="0" />
        <mxCell id="1" parent="0" />
        <mxCell id="gD2J12F2C7oUOvGCVNZ1-2" value="whether to come to class in person&lt;br&gt;&lt;br&gt;how I&#39;m feeling today&lt;br&gt;how stubborn person is&lt;br&gt;whether in-person is legal&lt;br&gt;how much sleep&lt;br&gt;how much gas in car&lt;br&gt;how close you live to campus&lt;br&gt;weather conditions&lt;br&gt;professor is still alive&lt;br&gt;&lt;br&gt;feeling is a string&amp;nbsp;&lt;br&gt;&quot;good&quot;&lt;br&gt;&quot;ok&quot;&lt;br&gt;&quot;bad&quot;&lt;br&gt;&quot;awesome&quot;&lt;br&gt;feeling is a number&amp;nbsp;&lt;br&gt;1 - 10&lt;br&gt;&lt;br&gt;stubbornness is a number&amp;nbsp;&lt;br&gt;1-10&lt;br&gt;stubbornness is a string&amp;nbsp;&lt;br&gt;&quot;not at all&quot;&lt;br&gt;&quot;very&quot;&lt;br&gt;&quot;somewhat&quot;&lt;br&gt;comment: feeling represented by linear scale one to ten&lt;br&gt;comment: one-end is worst feeling, ten-end is best feeling&lt;br&gt;comment 4 is treshold for going to class&lt;br&gt;feeling is a number&lt;br&gt;if feeling&amp;nbsp;&lt;br&gt;&lt;br&gt;goToClassInPerson is a string&lt;br&gt;feeling today is a number&amp;nbsp;&lt;br&gt;comment: expecting feelingToday is a number 1 -10&lt;br&gt;comment: scale of 1 - 10 and 10 is best&lt;br&gt;comment: check if feeling good enough to go to class&lt;br&gt;thresholdFeeling is a Number&lt;br&gt;StubbornnessToday is a Number&lt;br&gt;comment: expecting a Number 1-10 and 10 is most stubborn&lt;br&gt;thresholdStub is a Number&lt;br&gt;&lt;br&gt;goToClassInPerson = &quot;yes&quot;&lt;br&gt;thresholdFeeling=5&lt;br&gt;thresholdStub=6&lt;br&gt;&lt;br&gt;inputfeelingToday&lt;br&gt;comment: we should validate the above input&lt;br&gt;if feelingToday &amp;lt;= thresholdFeeling then go ToClassInPerson = &quot;no&quot;&lt;br&gt;&lt;br&gt;input stubbornesstoday&lt;br&gt;if(stubbornessToday &amp;lt;=threshold)&lt;br&gt;goToClassInPerson = &quot;no&quot;" style="text;html=1;strokeColor=none;fillColor=none;align=left;verticalAlign=middle;whiteSpace=wrap;rounded=0;" vertex="1" parent="1">
          <mxGeometry x="20" y="20" width="410" height="790" as="geometry" />
        </mxCell>
      </root>
    </mxGraphModel>
  </diagram>
</mxfile>
